HIERARCHY
ROOT Hips
{
	OFFSET 0.00000 0.00000 0.00000
	CHANNELS 6 Xposition Yposition Zposition Yrotation Zrotation Xrotation 
	JOINT Lumbar
	{
		OFFSET 0 0 0
		CHANNELS 3 Zrotation Xrotation Yrotation
		JOINT Neck
		{
			OFFSET 0.00 0.2701 0.00
			CHANNELS 3 Zrotation Xrotation Yrotation
			End Site
			{
				OFFSET 0.00 0.1379 0.00
			}
		}
		JOINT RightShoulder
		{
			OFFSET 0.0119 0.2289 0.1181
			CHANNELS 3 Zrotation Xrotation Yrotation
			JOINT RightElbow
			{
				OFFSET 0.00 -0.1475 0.00
				CHANNELS 2 Zrotation Yrotation
				JOINT RightWrist
				{
					OFFSET 0.00 -0.1605 0.00
					CHANNELS 2 Zrotation Xrotation
					End Site
					{
						OFFSET 0.0040 -0.1068 0.0006
					}
				}
			}
		}
		JOINT LeftShoulder
		{
			OFFSET 0.0119 0.2289 -0.1181
			CHANNELS 3 Zrotation Xrotation Yrotation
			JOINT LeftElbow
			{
				OFFSET 0.00 -0.1475 0.00
				CHANNELS 2 Zrotation Yrotation
				JOINT LeftWrist
				{
					OFFSET 0.00 -0.1605 0.00
					CHANNELS 2 Zrotation Xrotation
					End Site
					{
						OFFSET 0.0040 -0.1068 -0.0006
					}
				}
			}
		}
	}
	JOINT RightHip
	{
		OFFSET 0.0316 -0.0424 0.0458
		CHANNELS 3 Zrotation Xrotation Yrotation
		JOINT RightKnee
		{
			OFFSET 0.00 -0.2438 0.00
			CHANNELS 1 Zrotation
			JOINT RightAnkle
			{
				OFFSET 0.00 -0.2449 0.00
				CHANNELS 3 Zrotation Xrotation Yrotation
				End Site
				{
					OFFSET 0.1237 -0.0542 0.0051
				}
			}
		}
	}
	JOINT LeftHip
	{
		OFFSET 0.0316 -0.0424 -0.0458
		CHANNELS 3 Zrotation Xrotation Yrotation
		JOINT LeftKnee
		{
			OFFSET 0.00 -0.2438 0.00
			CHANNELS 1 Zrotation
			JOINT LeftAnkle
			{
				OFFSET 0.00 -0.2449 0.00
				CHANNELS 3 Zrotation Xrotation Yrotation
				End Site
				{
					OFFSET 0.1237 -0.0542 -0.0051
				}
			}
		}
	}
}
MOTION
Frames: 19
Frame Time: 0.02
-0.67352 0.56527 -0.12181 636.63347 0 -5.1698 0.78401 5.60549 -0.44788 -27.66858 0.89991 -0.44256 54.66072 -6.55435 56.11276 136.74421 102.77919 -54.36218 -5.10997 32.64458 13.96735 -60.2707 91.57469 -75.86293 -14.67601 2.30057 19.71597 2.98322 9.79853 -11.17974 -5.00673 -2.04043 1.24231 -3.71512 -2.29602 -13.11213 -15.0771 7.70079 -2.89333 -10.70885
-0.67448 0.5647 -0.11482 637.80619 0 -4.87642 0.83942 5.53114 -0.44716 -27.72593 0.94065 -0.38089 54.88718 -6.54359 56.00259 136.74856 102.63486 -54.31727 -5.07879 32.64496 14.09956 -60.20834 91.39712 -73.46686 -13.85261 1.39141 19.50056 3.0505 10.40972 -10.76535 -4.94286 -1.90378 1.93367 -4.08907 -2.32966 -13.81273 -15.5001 7.91216 -3.06158 -10.94949
-0.67543 0.56405 -0.10744 638.94174 0 -4.56237 0.95608 5.4645 -0.45558 -27.79893 0.95179 -0.336 55.14303 -6.58424 55.94742 136.75164 102.51548 -54.27758 -5.03746 32.6876 14.25925 -60.14514 91.26666 -70.44353 -12.6802 0.17869 19.27196 3.16318 11.02474 -11.04938 -4.95419 -1.789 2.34968 -4.4479 -2.37715 -14.5226 -16.00613 8.14025 -3.2153 -11.12325
-0.67637 0.56347 -0.10021 640.09382 0 -4.27233 1.04794 5.41311 -0.46132 -27.8637 0.97321 -0.28874 55.37682 -6.5971 55.87141 136.76001 102.37457 -54.24092 -4.99734 32.70495 14.40817 -60.08754 91.13048 -68.01515 -11.62306 -0.88371 19.04506 3.2571 11.6177 -11.0266 -4.93767 -1.66915 2.87748 -4.79773 -2.40675 -15.21246 -16.50619 8.3555 -3.37233 -11.33006
-0.67738 0.56276 -0.09306 641.24524 0 -3.9198 1.12837 5.2828 -0.45976 -27.93486 1.00785 -0.21896 55.64796 -6.62784 55.7771 136.75029 102.27531 -54.18168 -4.96649 32.74854 14.55012 -60.00806 90.92427 -64.31097 -10.74007 -2.00396 18.83537 3.34244 12.29733 -10.96766 -4.89122 -1.52846 3.46793 -5.21962 -2.48496 -15.9684 -16.86676 8.59629 -3.54423 -11.52511
-0.67825 0.56229 -0.08567 642.39021 0 -3.69253 1.24631 5.31791 -0.47712 -27.99513 1.00886 -0.2004 55.84835 -6.63287 55.73379 136.7759 102.09434 -54.17037 -4.92057 32.74645 14.71303 -59.97382 90.87813 -63.07396 -9.42151 -3.06932 18.58458 3.45668 12.79306 -11.1427 -4.92402 -1.43617 3.86089 -5.48213 -2.46549 -16.58827 -17.54401 8.78385 -3.68017 -11.72877
-0.6787 0.56247 -0.07768 643.52452 0 -3.81978 1.45653 5.81651 -0.53072 -28.02926 0.91369 -0.31631 55.84203 -6.56723 55.8238 136.91649 101.70262 -54.29313 -4.77389 32.61823 14.92619 -60.0656 91.24209 -69.16058 -6.90173 -3.96225 18.25413 3.63963 12.83009 -11.84194 -5.18455 -1.47638 3.76484 -5.35378 -2.17027 -16.83813 -19.02225 8.85299 -3.73479 -11.97467
-0.67902 0.56289 -0.06947 644.65436 0 -4.07316 1.70141 6.47957 -0.60567 -28.05008 0.78764 -0.48352 55.76377 -6.47228 55.96227 137.08978 101.22694 -54.46318 -4.62128 32.4407 15.15915 -60.20271 91.76872 -77.6858 -3.97067 -4.77955 17.87771 3.85011 12.67406 -12.74294 -5.51811 -1.56399 3.47999 -5.05652 -1.77624 -16.94759 -20.82638 8.86151 -3.75112 -12.23093
-0.67941 0.56321 -0.06139 645.78772 0 -4.2668 1.92805 7.06205 -0.67976 -28.07205 0.68243 -0.62939 55.72149 -6.38195 56.07489 137.23645 100.77302 -54.60993 -4.51499 32.27908 15.38423 -60.31858 92.23565 -84.8593 -1.28411 -5.59614 17.50264 4.04816 12.57291 -13.51873 -5.80098 -1.62711 3.28856 -4.80721 -1.42987 -17.11876 -22.51613 8.87676 -3.77553 -12.4816
-0.67975 0.56346 -0.0532 646.91315 0 -4.47049 2.16797 7.67035 -0.71655 -28.11614 0.54714 -0.76835 55.66786 -6.32815 56.20577 137.43142 100.37832 -54.76542 -4.23469 32.14648 15.60755 -60.43738 92.64775 -93.0359 1.65447 -6.57076 17.20902 4.24772 12.60656 -14.46004 -6.15971 -1.70294 3.05795 -4.68086 -1.07456 -17.30685 -24.06611 8.98187 -3.83864 -12.73499
-0.68016 0.56392 -0.04517 648.05494 0 -4.68273 2.3869 8.26272 -0.83633 -28.10967 0.46796 -0.93261 55.61856 -6.19308 56.30915 137.53522 99.8536 -54.91273 -4.30236 31.94104 15.83635 -60.56054 93.20752 -99.71415 4.16545 -7.19514 16.73567 4.44974 12.31854 -15.09595 -6.37752 -1.76388 2.86461 -4.25617 -0.71145 -17.41645 -25.98391 8.88349 -3.81243 -12.98434
-0.6808 0.56491 -0.03758 649.2388 0 -4.89375 2.54539 8.77973 -1.1763 -27.97685 0.54771 -1.16317 55.61411 -5.81903 56.32708 137.36483 98.87127 -55.03617 -5.44806 31.54743 16.09716 -60.68732 94.17413 -101.62836 5.35492 -6.86234 15.77207 4.65419 11.14603 -14.83056 -6.18208 -1.76665 2.8479 -3.07008 -0.37567 -17.42823 -28.82989 8.25494 -3.54678 -13.23079
-0.68152 0.5661 -0.03016 650.43971 0 -5.10767 2.68006 9.27295 -1.59912 -27.79198 0.68566 -1.41564 55.61343 -5.3676 56.31508 137.10414 97.78114 -55.14819 -6.92422 31.08194 16.3587 -60.81641 95.27613 -101.95882 6.10421 -6.18007 14.63041 4.85926 9.66415 -14.24895 -5.84321 -1.75369 2.87173 -1.58691 -0.03155 -17.35072 -32.03259 7.42238 -3.1927 -13.46825
-0.68219 0.56717 -0.0227 651.63642 0 -5.31679 2.82152 9.7717 -1.98721 -27.62387 0.79967 -1.65214 55.6009 -4.96609 56.31486 136.89438 96.82088 -55.25818 -8.1712 30.6484 16.6054 -60.94271 96.2906 -103.03767 7.08133 -5.66143 13.57356 5.06252 8.35292 -13.81422 -5.57365 -1.75143 2.85994 -0.22446 0.32597 -17.25767 -35.08078 6.66955 -2.88105 -13.70674
-0.68292 0.56835 -0.01507 652.82018 0 -5.54628 2.98161 10.30008 -2.36619 -27.48309 0.90262 -1.91594 55.62887 -4.50292 56.32361 136.64447 95.52437 -55.39873 -9.74482 30.21571 16.91367 -61.07802 97.42105 -104.08195 7.96139 -5.11866 12.49798 5.27412 6.90972 -13.37353 -5.28889 -1.73594 2.9128 1.0885 0.61751 -17.39372 -38.1216 5.96143 -2.56002 -13.97026
-0.68355 0.56936 -0.00784 654.03228 0 -5.73077 3.09636 10.75696 -2.78044 -27.27486 1.04203 -2.12729 55.57404 -4.14815 56.30649 136.45573 94.89354 -55.47427 -10.725 29.76544 17.09407 -61.19442 98.3393 -104.78829 8.92658 -4.54584 11.42058 5.46699 5.66838 -12.86753 -5.0012 -1.74351 2.84459 2.56668 1.04323 -17.03689 -41.24152 5.12256 -2.23624 -14.16457
-0.68392 0.56987 -0.00163 655.3421 0 -5.80379 3.09475 11.03849 -3.29824 -26.87888 1.27486 -2.18893 55.29286 -4.12963 56.22017 136.46295 96.21577 -55.35573 -9.9133 29.27939 16.91768 -61.25852 98.64353 -104.95582 10.29215 -3.96066 10.37496 5.61797 5.07975 -12.25599 -4.73641 -1.81972 2.41988 4.48014 1.87065 -15.3117 -44.62959 3.88625 -1.94325 -14.30246
-0.68419 0.57021 0.00416 656.67554 0 -5.82846 3.04754 11.24516 -3.84364 -26.41967 1.54104 -2.19663 54.92846 -4.2199 56.10965 136.5338 98.19585 -55.17502 -8.50616 28.77956 16.6135 -61.30317 98.72814 -104.82447 11.74535 -3.36055 9.33531 5.74824 4.70287 -11.58921 -4.47401 -1.91927 1.87463 6.53851 2.82604 -13.10123 -48.05471 2.54134 -1.64853 -14.35022
-0.68449 0.57065 0.01012 657.98261 0 -5.86556 3.01908 11.47436 -4.35892 -25.99866 1.78777 -2.2285 54.59981 -4.24841 56.0132 136.5721 99.81673 -55.0341 -7.41953 28.28905 16.36959 -61.35622 98.90864 -104.81311 13.11895 -2.77723 8.29741 5.88108 4.21637 -10.94806 -4.21288 -2.0071 1.39426 8.4965 3.70061 -11.13092 -51.37516 1.30365 -1.34267 -14.34724
